# xmcd
#
# Track frame offsets: 
#        182
#        90255
#        146270
#        206870
#        261242
#
# Disc length: 4587 seconds
#
# Revision: 11
# Processed by: cddbd v1.5.2PL0 Copyright (c) Steve Scherf et al.
# Submitted via: ExactAudioCopy v0.99pb5
#
DISCID=3f11e905
DTITLE=Derek and the Dominos - The Layla Sessions The Jams
DYEAR=1970
DGENRE=Blues
TTITLE0=Jam I
TTITLE1=Jam II
TTITLE2=Jam III
TTITLE3=Jam IV
TTITLE4=Jam V
EXTD=
EXTT0=
EXTT1=
EXTT2=
EXTT3=
EXTT4=
PLAYORDER=
